#!OML:ASF I:\Actors\actors\Patient Classification 2\Patient 1\Session 1\actor1.ASF
:FULLY-SPECIFIED
:DEGREES
91
root -0.66719 18.6845 5.88339 1.85529 -2.1013 -4.62413
lowerback 1.89696 0.391722 2.43767
upperback -3.02363 0.657787 1.03421
thorax -4.16507 0.267824 -0.335339
lowerneck -10.0678 -0.935958 -0.873218
upperneck 20.8647 -2.03893 4.12305
head 8.16865 -0.636305 1.31477
rclavicle -1.04983e-014 1.63003e-014
rhumerus -49.6505 3.97676 -89.9725
rradius 43.423
rwrist 14.2065
rhand -10.7294 -29.203
rfingers 7.12502
rthumb 15.2812 -58.6185
lclavicle -1.04983e-014 1.63003e-014
lhumerus -42.9722 3.03176 88.2663
lradius 36.7688
lwrist -10.8326
lhand -3.30844 -23.4154
lfingers 7.12502
lthumb 22.4179 5.3037
rfemur 0 0 0
rtibia 0
rfoot 0 0
rtoes 0
lfemur -5.07779 -5.81725 -9.51019
ltibia 23.0296
lfoot -23.9257 12.9827
ltoes -55.5758
92
root -0.667103 18.6843 5.88444 1.84402 -2.10872 -4.61404
lowerback 1.91996 0.395347 2.44399
upperback -3.0051 0.663073 1.02965
thorax -4.15862 0.270358 -0.344002
lowerneck -9.98045 -0.9541 -0.887027
upperneck 20.6357 -2.05279 4.12622
head 8.07662 -0.64762 1.31538
rclavicle -6.37353e-015 -9.93923e-015
rhumerus -49.8412 3.96814 -90.0294
rradius 43.6533
rwrist 13.7079
rhand -10.7086 -29.2022
rfingers 7.12502
rthumb 15.3011 -58.6162
lclavicle -6.37353e-015 -9.93923e-015
lhumerus -42.9856 2.9359 88.2774
lradius 36.8154
lwrist -10.846
lhand -3.24047 -23.4321
lfingers 7.12502
lthumb 22.4832 5.27906
rfemur 0 0 0
rtibia 0
rfoot 0 0
rtoes 0
lfemur -5.05346 -5.84761 -9.52728
ltibia 23.0194
lfoot -23.9471 13.0081
ltoes -55.5621
93
root -0.667577 18.6842 5.88501 1.83076 -2.09393 -4.61012
lowerback 1.96449 0.395361 2.45258
upperback -2.97615 0.664376 1.03141
thorax -4.15371 0.271 -0.347354
lowerneck -9.91633 -0.979377 -0.950395
upperneck 20.347 -2.07697 4.18552
head 7.97053 -0.662702 1.34153
rclavicle -3.81418e-015 -9.93923e-016
rhumerus -50.0414 4.11181 -90.1873
rradius 43.8085
rwrist 12.5191
rhand -11.597 -28.7775
rfingers 7.12502
rthumb 14.4453 -58.2547
lclavicle -3.81418e-015 -9.93923e-016
lhumerus -43.0463 2.69334 88.3625
lradius 36.9944
lwrist -10.7903
lhand -3.22245 -23.3572
lfingers 7.12502
lthumb 22.5005 5.35188
rfemur 0 0 0
rtibia 0
rfoot 0 0
rtoes 0
lfemur -5.03392 -5.83138 -9.5265
ltibia 23.0075
lfoot -23.9313 12.9872
ltoes -55.6173
94
root -0.668444 18.6838 5.88609 1.83019 -2.04837 -4.61233
lowerback 1.96958 0.394986 2.47331
upperback -2.92818 0.664277 1.04549
thorax -4.10671 0.271342 -0.344373
lowerneck -9.75445 -1.02346 -0.97993
upperneck 19.847 -2.10168 4.13551
head 7.77565 -0.689665 1.32473
rclavicle -1.39149e-014 -3.77691e-015
rhumerus -50.275 4.34212 -90.3004
rradius 44.1645
rwrist 11.8209
rhand -11.4514 -28.9222
rfingers 7.12502
rthumb 14.5856 -58.3894
lclavicle -1.39149e-014 -3.77691e-015
lhumerus -43.1276 2.28825 88.5583
lradius 37.2999
lwrist -10.5812
lhand -3.24423 -23.2767
lfingers 7.12502
lthumb 22.4796 5.43489
rfemur 0 0 0
rtibia 0
rfoot 0 0
rtoes 0
lfemur -5.03549 -5.83023 -9.51094
ltibia 22.9973
lfoot -23.8943 12.8719
ltoes -55.5562
95
root -0.669776 18.6838 5.8871 1.84388 -1.97574 -4.62587
lowerback 1.97627 0.398837 2.49881
upperback -2.88384 0.670514 1.06966
thorax -4.06437 0.274801 -0.334027
lowerneck -9.62281 -1.09629 -0.991437
upperneck 19.3328 -2.15159 3.99736
head 7.58235 -0.735019 1.27387
rclavicle 1.37907e-014 -7.95139e-016
rhumerus -50.5168 4.61216 -90.4051
rradius 44.549
rwrist 11.441
rhand -10.7448 -29.2537
rfingers 7.12502
rthumb 15.2663 -58.6703
lclavicle 1.37907e-014 -7.95139e-016
lhumerus -43.1455 1.88169 88.7693
lradius 37.5209
lwrist -10.3776
lhand -3.28707 -23.3051
lfingers 7.12502
lthumb 22.4384 5.41148
rfemur 0 0 0
rtibia 0
rfoot 0 0
rtoes 0
lfemur -5.07266 -5.81861 -9.47703
ltibia 22.9983
lfoot -23.8419 12.755
ltoes -55.4945
